<?xml version="1.0" standalone="no"?>
<!DOCTYPE svg PUBLIC "-//W3C//DTD SVG 20010904//EN"
 "http://www.w3.org/TR/2001/REC-SVG-20010904/DTD/svg10.dtd">
<svg version="1.0" xmlns="http://www.w3.org/2000/svg"
 width="325.000000pt" height="325.000000pt" viewBox="0 0 325.000000 325.000000"
 preserveAspectRatio="xMidYMid meet">
<metadata>
Created by potrace 1.14, written by Peter Selinger 2001-2017
</metadata>
<g transform="translate(0.000000,325.000000) scale(0.100000,-0.100000)"
fill="#000000" stroke="none">
<path d="M0 1630 l0 -1250 625 0 625 0 0 125 0 125 125 0 125 0 0 500 0 500
-125 0 -125 0 0 125 0 125 125 0 125 0 0 375 0 375 -125 0 -125 0 0 125 0 125
-625 0 -625 0 0 -1250z m1000 625 l0 -375 -250 0 -250 0 0 375 0 375 250 0
250 0 0 -375z m0 -1125 l0 -500 -250 0 -250 0 0 500 0 500 250 0 250 0 0 -500z"/>
<path d="M2000 2755 l0 -125 -125 0 -125 0 0 -375 0 -375 125 0 125 0 0 -125
0 -125 250 0 250 0 0 -125 0 -125 125 0 125 0 0 -375 0 -375 -250 0 -250 0 0
125 0 125 -250 0 -250 0 0 -125 0 -125 125 0 125 0 0 -125 0 -125 500 0 500 0
0 125 0 125 125 0 125 0 0 500 0 500 -125 0 -125 0 0 125 0 125 -250 0 -250 0
0 125 0 125 -125 0 -125 0 0 250 0 250 250 0 250 0 0 -125 0 -125 250 0 250 0
0 125 0 125 -125 0 -125 0 0 125 0 125 -500 0 -500 0 0 -125z"/>
</g>
</svg>
